<?xml version="1.0" encoding="utf-8"?>
<!-- Generator: Adobe Illustrator 16.0.0, SVG Export Plug-In . SVG Version: 6.00 Build 0)  -->
<!DOCTYPE svg PUBLIC "-//W3C//DTD SVG 1.1//EN" "http://www.w3.org/Graphics/SVG/1.1/DTD/svg11.dtd">
<svg version="1.1" id="Layer_1" xmlns="http://www.w3.org/2000/svg" xmlns:xlink="http://www.w3.org/1999/xlink" x="0px" y="0px"
	 width="267px" height="300px" viewBox="0 0 267 300" enable-background="new 0 0 267 300" xml:space="preserve">
<g id="Layer_1_1_">
	<polygon fill="#010202" points="263.913,224.158 8.856,233.143 0.944,3.36 255.087,22.654 	"/>
	<polygon fill="#3D3D3B" points="252.975,209.123 20.984,215.264 14.09,15.047 245.122,31.551 	"/>
	<path fill="#E9D8CF" d="M263.913,224.158l2.087,31.35c0.191,5.688-1.341,5.688-15.277,6.167L22.71,273.766
		c-13.94,0.481-12.572-3.779-12.764-9.472L8.89,232.945L263.913,224.158z"/>
	<path fill="#E9D8CF" d="M69.24,270.396c0,0-5.951,16.886-2.937,18.854c5.911,3.863,42.711,8.746,36.465,8.746l71.828-3.383
		c0,0-37.488-2.773-54.625-8.786c-3.234-1.137,3.129-18.122,3.129-18.122L69.24,270.396z"/>
	<polygon fill="#E94A39" stroke="#FFFFFF" stroke-width="0.4" stroke-miterlimit="10" points="143.076,73.417 200.094,44.076 
		220.585,29.798 	"/>
</g>
<g id="Layer_2">
	<polygon opacity="0.2" fill="#010202" enable-background="new    " points="19.464,100.183 45.995,189.917 71.408,179.504 
		85.78,196.707 102.848,202.938 107.804,196.639 108.18,191.639 160.789,129.81 141.52,115.876 144.73,88.918 160.148,65.895 
		87.792,88.951 78.357,88.27 78.889,79.245 39.926,70.21 27.269,88.728 	"/>
	<polygon fill="#EE7064" stroke="#F6F6F6" stroke-width="0.4" stroke-miterlimit="10" points="37.858,117.515 55.547,127.885 
		45.414,187.805 71.71,173.743 82.971,176.391 104.317,190.639 105.702,185.158 123.097,151.956 125.396,140.551 137.919,120.081 
		130.238,111.987 138.762,90.359 142.885,79.323 143.922,72.325 87.274,96.941 82.336,93.271 77.886,87.603 69.167,93.5 
		53.965,88.728 49.113,79.325 44.449,78.25 42.709,88.164 41.209,101 	"/>
	<polyline fill="#E94A39" stroke="#FFFFFF" stroke-width="0.4" stroke-miterlimit="10" points="44.285,80.705 27.388,32.292 
		22.086,16.704 	"/>
	<polygon fill="#E94A39" stroke="#FFFFFF" stroke-width="0.2" stroke-miterlimit="10" points="251.184,188.639 187.697,154.662 
		178.424,114.701 186.993,154.998 	"/>
	<polyline fill="#E94A39" stroke="#FFFFFF" stroke-width="0.2" stroke-miterlimit="10" points="68.92,197.723 71.71,173.743 
		69.74,195.82 60.508,214.081 	"/>
	<path fill="#E85C4E" stroke="#E85C4E" stroke-miterlimit="10" d="M45.995,189.917"/>
	<polygon fill="#E94A39" stroke="#FFFFFF" stroke-width="0.2" stroke-miterlimit="10" points="21.91,214.334 31.56,200.922 
		45.414,187.805 	"/>
</g>
</svg>
